<?xml version="1.0" ?><svg id="Layer_1" style="enable-background:new 0 0 32 32;" version="1.1" viewBox="0 0 32 32" xml:space="preserve" xmlns="http://www.w3.org/2000/svg" xmlns:xlink="http://www.w3.org/1999/xlink"><g><g><path d="M30,31H2c-0.5527344,0-1-0.4477539-1-1V2c0-0.5522461,0.4472656-1,1-1h28c0.5527344,0,1,0.4477539,1,1v28    C31,30.5522461,30.5527344,31,30,31z M3,29h26V3H3V29z"/></g><g><g><path d="M7,13.2817383c-0.5527344,0-1-0.4477539-1-1V7c0-0.5522461,0.4472656-1,1-1h5.28125c0.5527344,0,1,0.4477539,1,1     s-0.4472656,1-1,1H8v4.2817383C8,12.8339844,7.5527344,13.2817383,7,13.2817383z"/></g><g><path d="M17,18c-0.2558594,0-0.5117188-0.0976563-0.7070313-0.2929688l-10-10c-0.390625-0.390625-0.390625-1.0234375,0-1.4140625     s1.0234375-0.390625,1.4140625,0l10,10c0.390625,0.390625,0.390625,1.0234375,0,1.4140625     C17.5117188,17.9023438,17.2558594,18,17,18z"/></g></g><g><path d="M30,31h-9.3330078c-0.5527344,0-1-0.4477539-1-1v-9.3334961c0-0.5522461,0.4472656-1,1-1H30c0.5527344,0,1,0.4477539,1,1    V30C31,30.5522461,30.5527344,31,30,31z M21.6669922,29H29v-7.3334961h-7.3330078V29z"/></g></g></svg>