<?xml version="1.0" ?><svg id="Layer_1" style="enable-background:new 0 0 100 100;" version="1.1" viewBox="0 0 100 100" xml:space="preserve" xmlns="http://www.w3.org/2000/svg" xmlns:xlink="http://www.w3.org/1999/xlink"><path d="M12.735,12.727C6.458,19,3,27.34,3,36.212s3.458,17.212,9.735,23.485c6.48,6.475,14.989,9.711,23.502,9.711  c5.853,0,11.707-1.532,16.9-4.594l29.783,29.759C84.49,96.141,86.566,97,88.778,97c0.035,0,0.07,0,0.105,0  c2.251-0.028,4.348-0.942,5.903-2.576c3.073-3.226,2.916-8.507-0.351-11.771L64.865,53.105c3.003-5.062,4.609-10.854,4.609-16.893  c0-8.872-3.458-17.212-9.735-23.485c0,0,0,0,0,0C46.777-0.223,25.693-0.221,12.735,12.727z M91.608,85.481  c1.744,1.743,1.87,4.517,0.282,6.184c-0.807,0.846-1.892,1.32-3.056,1.334c-0.019,0-0.037,0-0.055,0  c-1.145,0-2.22-0.445-3.031-1.256l-29.243-29.22c1.122-0.864,2.206-1.8,3.234-2.827c1.023-1.022,1.962-2.104,2.833-3.229  L91.608,85.481z M65.475,36.212c0,7.803-3.041,15.138-8.563,20.655c-11.399,11.393-29.95,11.391-41.348,0  C10.041,51.35,7,44.015,7,36.212c0-7.802,3.041-15.138,8.563-20.656c5.699-5.695,13.187-8.543,20.674-8.543  c7.486,0,14.975,2.848,20.674,8.543v0C62.434,21.074,65.475,28.41,65.475,36.212z"/><path d="M18.112,18.099c-4.836,4.831-7.499,11.264-7.499,18.113s2.663,13.282,7.498,18.113c4.998,4.994,11.562,7.49,18.126,7.49  c6.563,0,13.129-2.497,18.126-7.49c4.834-4.831,7.497-11.264,7.497-18.113s-2.663-13.283-7.497-18.114  C44.367,8.112,28.104,8.113,18.112,18.099z M51.535,51.497c-8.433,8.427-22.159,8.43-30.596-0.001  c-4.079-4.075-6.326-9.503-6.326-15.284s2.247-11.208,6.326-15.284c4.217-4.214,9.757-6.321,15.298-6.321  c5.54,0,11.08,2.107,15.298,6.321c4.079,4.076,6.325,9.503,6.325,15.284C57.86,41.993,55.614,47.421,51.535,51.497z"/></svg>